# xmcd
# 
# Track frame offsets:
#     150
#     16688
#     43766
#     71780
#     98503
#     121792
#     154737
#     172821
#     200629
#     225709
#     244878
#     266528
#     283334
#     298655
#     313428
#     333944
# 
# Disc length: 4712
# 
# Revision: 1
# Processed by: cddbd v1.5.2PL0 Copyright (c) Steve Scherf et al.
# Submitted via: fre:ac v1.0.31
# 
DISCID=e7126610
DTITLE=Jazz - Jazz Smithsonian Anthology Disc 6
DYEAR=2011
DGENRE=Jazz
TTITLE0=Maple Leaf Rag
TTITLE1=Birdland
TTITLE2=My Song
TTITLE3=Iya
TTITLE4=Bush Magic
TTITLE5=Steppin'
TTITLE6=The Glide Was In The Ride
TTITLE7=Manenberg (revisited)
TTITLE8=Nothing Personnal
TTITLE9=Airegin
TTITLE10=Down The Avenue
TTITLE11=Ting Ning
TTITLE12=Kilayim
TTITLE13=Hey-Hee-Hi-Ho
TTITLE14=Neutralisme
TTITLE15=Suspended Night Variation VIII
EXTD=YEAR: 2011
EXTT0=
EXTT1=
EXTT2=
EXTT3=
EXTT4=
EXTT5=
EXTT6=
EXTT7=
EXTT8=
EXTT9=
EXTT10=
EXTT11=
EXTT12=
EXTT13=
EXTT14=
EXTT15=
PLAYORDER=
